<svg id="Layer_1" data-name="Layer 1" xmlns="http://www.w3.org/2000/svg" viewBox="0 0 700 700"><defs><style>.cls-1{fill:#fff;}.cls-2{fill:#aa1f24;}.cls-3{fill:#1b75ba;}</style></defs><title>logo_dntu</title><circle class="cls-1" cx="350" cy="350" r="350"/><path class="cls-2" d="M308.22,618.2V587.92a33.13,33.13,0,0,0-.37-5.54,9.68,9.68,0,0,0-1.28-3.53,31,31,0,0,0-2.78-3.69v-.32h15.95V575l23.39,32.47V585.39a24.4,24.4,0,0,0-.58-5.64,10,10,0,0,0-2.71-4.77l-.18-.14h14.85V575a12.63,12.63,0,0,0-3.46,9.32v45.37h-.33a15.87,15.87,0,0,1-4.52-1.1,29.26,29.26,0,0,1-6.5-3.39,21.59,21.59,0,0,1-5.66-5.44l-17.59-24.85h-.27v23.32c0,4.13,1.12,7.27,3.39,9.46V628H304.78v-.31q3.45-3,3.44-9.47"/><path class="cls-2" d="M248.36,574.84h24.8a33,33,0,0,1,11.38,1.89,24.64,24.64,0,0,1,8.78,5.28,24.36,24.36,0,0,1,5.75,8.42,30.41,30.41,0,0,1,1.68,5.21,25.19,25.19,0,0,1,.6,5.5,32.36,32.36,0,0,1-2.82,13.51,23,23,0,0,1-9.22,10.26q-6.42,4-16.36,4H248.36v-.32a6.29,6.29,0,0,0,3-3.49,29.38,29.38,0,0,0,.56-7V583q0-6.26-3.52-8Zm18.71,45.27c1.2.23,2.88.48,5,.72a11.39,11.39,0,0,0,9.92-5.1c2.33-3.43,3.54-8.07,3.54-14a30.13,30.13,0,0,0-.54-5.91,21.5,21.5,0,0,0-1.49-4.79,12.53,12.53,0,0,0-4.81-5.88,12.75,12.75,0,0,0-6.62-1.75,27,27,0,0,0-5,.68Z"/><path class="cls-2" d="M372.25,618.46V584.14c0-.25-1.31-.37-3.94-.37a13.83,13.83,0,0,0-4.91.9,33.58,33.58,0,0,0-5.09,2.47l3.28-12.58,1.57.28h38.13l-2.84,12.3q-1.65-3.52-7.43-3.53a11.66,11.66,0,0,0-3.53.53v34.32c0,4.68,1.26,8,3.74,10.1v.32H368.88v-.32a5.52,5.52,0,0,0,2.72-3.19,17,17,0,0,0,.65-5.11Z"/><path class="cls-2" d="M406,614.06v-29a26.41,26.41,0,0,0-.55-6.5,6.32,6.32,0,0,0-3-3.44v-.32h21.94V575a6.79,6.79,0,0,0-2.87,3.31,21,21,0,0,0-.66,6.31v27a12.1,12.1,0,0,0,1.61,6.21c1.09,1.82,3,2.73,5.76,2.73a6.52,6.52,0,0,0,5.32-2.09,10,10,0,0,0,2.16-4.9c.12-.81.21-1.82.29-3s.12-2.4.12-3.62V584.62a24.58,24.58,0,0,0-.55-5.8,7.31,7.31,0,0,0-3-3.82v-.16h21.91V575a7.25,7.25,0,0,0-2.85,3.59,15.59,15.59,0,0,0-.73,5l.21,37.7c0,3.55,1.13,6,3.37,7.25v.32H436.1v-6.56a15.55,15.55,0,0,1-7,6,22,22,0,0,1-8.25,1.66,13.09,13.09,0,0,1-2.92-.34,25.44,25.44,0,0,1-3.38-1.1,13.89,13.89,0,0,1-6-4.87c-1.75-2.36-2.63-5.56-2.63-9.63"/><path class="cls-2" d="M344.77,95.7l31-13.71a6.35,6.35,0,0,0,3.16-8.31,6.27,6.27,0,0,0-8.24-3.15l-118.2,52.52a6.24,6.24,0,0,0-3.17,8.28,6.13,6.13,0,0,0,8.2,3.2l29.76-13.24A50,50,0,1,0,344.77,95.7"/><path class="cls-3" d="M330.59,247.32a30.39,30.39,0,1,1-30.42-30.44,30.42,30.42,0,0,1,30.42,30.44"/><path class="cls-3" d="M295.33,345.36a20.52,20.52,0,1,1-20.5-20.55,20.49,20.49,0,0,1,20.5,20.55"/><path class="cls-2" d="M409.12,481.16c.08-2.57.31-5.12.31-7.73,0-97.35-58-178.06-134.33-194.3a8.2,8.2,0,0,0-2.05.28c-2.21,3.4-.81,5.19,1.28,9.81,5,10.72,8.14,18.35,10.92,24.47a32.44,32.44,0,0,1,5.88,58.55c17.79,9.86,33.08,25.69,44.49,45.6,9.07,13.79,16.49,36.06,19.28,55.47a11.08,11.08,0,0,1,.14,1.14c.32,2.2.61,4.36.78,6.43A183.88,183.88,0,0,1,357.15,502a177.59,177.59,0,0,1-9.28,56.88h45.34a223.5,223.5,0,0,0,12.41-43.23c1.54-9.91,2.78-21.42,3.5-34.52m-116-288.79A30.92,30.92,0,0,0,297,207.75a39.47,39.47,0,0,1,7.42-.75,39.86,39.86,0,0,1,25.28,70.66c-.3.26-.62.49-.91.75a37,37,0,0,1-3.57,2.54,34,34,0,0,1-3.24,1.76c-.77.38-1.45.85-2.2,1.18,52,25.66,90.69,83.57,100.09,153.85.16,1.22.28,2.48.44,3.71A237.29,237.29,0,0,1,405.6,558.91h46.51c87.69-225.88-52.9-361-159-366.54M256.76,373.75a5.77,5.77,0,0,0-.7.29,2.72,2.72,0,0,0-1.19,1.65c19.41,20.88,31.89,53,31.89,89.15,0,39.13-14.65,73.52-36.87,94.07H335.6a174.64,174.64,0,0,0,9-55.79c0-70-39.07-126.82-87.86-129.37"/></svg>